<?xml version="1.0" encoding="UTF-8"?>
<svg id="Layer_2" data-name="Layer 2" xmlns="http://www.w3.org/2000/svg" viewBox="0 0 1882.33 327.77">
  <defs>
    <style>
      .cls-1 {
        fill: #fff;
      }

      .cls-2 {
        fill: #7e3af2;
      }
    </style>
  </defs>
  <g id="Layer_1-2" data-name="Layer 1">
    <g>
      <path class="cls-1" d="m394.9,172.31c-3.29-6.81-8.83-12.63-16.61-17.42-7.84-4.79-16.15-8.65-25.03-11.54-8.94-2.88-20.77-5.94-35.53-9.17-18.23-3.98-30.57-7.73-37.03-11.19-6.52-3.52-9.75-8.88-9.75-16.09,0-9.34,3.81-16.84,11.36-22.44,7.61-5.6,18.29-8.42,32.07-8.42,25.84,0,41.99,9.58,48.57,28.78h34.21c-3.17-18-11.65-32.59-25.32-43.78-13.73-11.19-32.94-16.79-57.74-16.79-21.34,0-39.57,5.65-54.57,16.96-14.94,11.31-22.44,26.82-22.44,46.61,0,9.4,1.73,17.54,5.19,24.46,3.52,6.86,8.94,12.52,16.21,16.9,7.33,4.44,14.77,7.9,22.32,10.5,7.61,2.6,17.19,5.19,28.78,7.79.63.23,1.61.4,3,.63,21,4.56,35.07,8.65,42.28,12.29,7.21,3.58,10.79,9.81,10.79,18.57,0,9.81-3.81,17.36-11.54,22.61-7.67,5.31-18.63,7.96-32.82,7.96-16.21,0-28.73-3.06-37.61-9.11-8.88-6.11-14.94-15.34-18.17-27.75h-34.15c3.17,19.96,12.17,36.4,27,49.32,14.77,12.86,35.82,19.32,63.22,19.32,21.17,0,39.51-5.31,55.03-16.04,15.46-10.67,23.25-26.65,23.25-47.82,0-9.98-1.67-18.4-4.96-25.15Z"/>
      <path class="cls-1" d="m514.59,124.6v-31.78h-65.59v-44.94l-33.86,7.5v139.08c0,21.8,5.6,38.36,16.79,49.78,11.19,11.36,25.67,17.07,43.44,17.07,14.59,0,27.69-2.6,39.23-7.96v-30.98c-14.42,5.02-25.55,7.44-33.23,7.44-21.57,0-32.36-12.34-32.36-37.15v-68.07h65.59Z"/>
      <path class="cls-1" d="m671.02,116.35c-15.52-18.06-36.34-27.11-62.53-27.11-24.75,0-45.17,8.13-61.15,24.4-15.98,16.32-24,36.98-24,61.95s8.08,45.51,24.17,61.61c16.04,16.09,36.57,24.11,61.61,24.11,18.34,0,34.67-4.56,48.86-13.79,14.19-9.17,24.4-22.67,30.57-40.49h-35.07c-3.81,8.02-9.58,14.13-17.42,18.29-7.79,4.21-16.67,6.35-26.65,6.35-14.19,0-26.02-4.15-35.36-12.46-9.4-8.31-14.82-19.84-16.21-34.61h134c1.61-27.4-5.36-50.13-20.82-68.24Zm-111.39,40.61c3-11.36,8.77-20.59,17.25-27.69,8.48-7.1,19.04-10.67,31.61-10.67s22.44,3.52,30.75,10.5c8.31,6.98,13.73,16.32,16.32,27.86h-95.93Z"/>
      <path class="cls-1" d="m841.13,92.82v28.21c-13.38-21.17-32.65-31.78-57.86-31.78-21.75,0-39.86,8.08-54.22,24.28-14.42,16.15-21.63,36.75-21.63,61.78s7.15,45.8,21.46,61.9c14.31,16.09,32.53,24.11,54.74,24.11,25.15,0,44.36-10.38,57.51-31.15v27.57h33.92V92.82h-33.92Zm-14.07,121.14c-9.58,9.98-21.69,15-36.28,15s-26.19-5.02-35.36-15c-9.17-9.98-13.79-22.9-13.79-38.65s4.61-28.73,13.79-38.71c9.17-9.98,21-15,35.36-15s26.71,5.08,36.28,15.17c9.63,10.09,14.42,22.9,14.42,38.53s-4.79,28.67-14.42,38.65Z"/>
      <path class="cls-1" d="m1135.44,105.85c-9.92-11.08-23.53-16.61-40.96-16.61-25.15,0-43.72,11.48-55.72,34.5-8.42-23.02-25.38-34.5-50.99-34.5-22.21,0-39.28,9.98-51.28,30v-26.42h-33.86v164.92h33.86v-85.43c0-15.4,3.46-27.69,10.38-36.92,6.86-9.17,16.79-13.79,29.82-13.79,21.75,0,32.65,12.52,32.65,37.49v98.64h34.21l-.29-85.43c0-15.4,3.46-27.69,10.5-36.92,6.98-9.17,16.96-13.79,29.94-13.79,21.8,0,32.71,12.52,32.71,37.49v98.64h33.86v-105.85c0-19.56-4.96-34.9-14.82-46.03Z"/>
      <path class="cls-1" d="m1322.33,113.53c-14.36-16.21-32.48-24.28-54.22-24.28-25.21,0-44.47,10.61-57.86,31.78V26.89h-33.92v230.85h33.92v-27.57c13.38,20.77,32.53,31.15,57.57,31.15,22.15,0,40.38-8.02,54.68-24.11,14.31-16.09,21.46-36.74,21.46-61.9s-7.21-45.63-21.63-61.78Zm-26.36,100.43c-9.17,9.98-21,15-35.36,15s-26.71-5.02-36.28-15c-9.58-9.98-14.42-22.9-14.42-38.65s4.85-28.44,14.42-38.53c9.58-10.09,21.69-15.17,36.28-15.17s26.19,5.02,35.36,15c9.17,9.98,13.79,22.9,13.79,38.71s-4.61,28.67-13.79,38.65Z"/>
      <path class="cls-1" d="m1494.46,92.82v28.21c-13.38-21.17-32.71-31.78-57.86-31.78-21.8,0-39.92,8.08-54.28,24.28-14.36,16.15-21.57,36.75-21.57,61.78s7.15,45.8,21.4,61.9c14.31,16.09,32.53,24.11,54.74,24.11,25.21,0,44.36-10.38,57.57-31.15v27.57h33.86V92.82h-33.86Zm-14.07,121.14c-9.63,9.98-21.69,15-36.28,15s-26.19-5.02-35.42-15c-9.17-9.98-13.79-22.9-13.79-38.65s4.61-28.73,13.79-38.71c9.23-9.98,21-15,35.42-15s26.65,5.08,36.28,15.17c9.58,10.09,14.36,22.9,14.36,38.53s-4.79,28.67-14.36,38.65Z"/>
      <path class="cls-1" d="m1696.24,191.92c-2.19-4.67-5.02-8.65-8.42-11.83-3.4-3.23-8.36-6.23-15-9-6.58-2.83-12.92-5.08-19.04-6.75-6.06-1.73-14.31-3.75-24.75-6.17-15.98-3.81-26.48-6.81-31.44-9.11-5.02-2.31-7.5-5.94-7.5-10.96,0-5.77,3.12-10.38,9.29-13.79,6.17-3.4,14.71-5.08,25.5-5.08,20.77,0,33.57,6.69,38.36,20.07h34.21c-3.23-15.57-10.9-27.86-22.96-36.74-12.11-8.88-28.44-13.33-49.03-13.33s-37.84,4.61-50.53,13.96c-12.69,9.29-19.04,22.09-19.04,38.48,0,13.21,4.79,23.07,14.42,29.53,9.58,6.52,26.65,12.75,51.22,18.75,1.85.4,4.44,1.04,7.84,1.79,9.17,2.25,15.81,3.92,19.9,5.13,4.1,1.15,7.73,3.06,10.79,5.65,3.12,2.65,4.67,5.94,4.67,9.92,0,6-3.17,10.67-9.46,13.96-6.29,3.29-14.94,4.9-25.9,4.9-14.02,0-24.69-2.13-32.07-6.4-7.44-4.33-12.4-11.08-15-20.25h-34.5c3.17,17.77,12.06,31.67,26.53,41.65,14.48,10.04,32.65,15,54.4,15,20.59,0,37.55-4.56,50.82-13.61,13.33-9.11,19.96-22.15,19.96-39.17,0-6.35-1.1-11.94-3.29-16.61Z"/>
      <path class="cls-1" d="m1861.28,116.35c-15.52-18.06-36.34-27.11-62.53-27.11-24.75,0-45.17,8.13-61.15,24.4-15.98,16.32-24,36.98-24,61.95s8.08,45.51,24.17,61.61c16.04,16.09,36.63,24.11,61.61,24.11,18.34,0,34.67-4.56,48.86-13.79,14.19-9.17,24.4-22.67,30.57-40.49h-35.07c-3.81,8.02-9.58,14.13-17.42,18.29-7.79,4.21-16.67,6.35-26.65,6.35-14.19,0-26.02-4.15-35.36-12.46-9.4-8.31-14.82-19.84-16.21-34.61h134c1.62-27.4-5.36-50.13-20.82-68.24Zm-111.39,40.61c3-11.36,8.77-20.59,17.25-27.69,8.48-7.1,19.04-10.67,31.61-10.67s22.44,3.52,30.75,10.5c8.31,6.98,13.73,16.32,16.32,27.86h-95.93Z"/>
      <path class="cls-2" d="m57.37,177.72v-39.88c0-.79.02-1.58.06-2.37.75-14.29,8.31-27.36,20.31-35.15l36.5-21.17c13.84-8,22.35-22.77,22.35-38.75l-.02-40.41L46.92,51.81l-24.57,14.2C8.52,74,0,88.76,0,104.74v131.91l34.99-20.18c13.85-7.99,22.38-22.76,22.38-38.75Zm99.75-86.6l-34.99,20.18c-13.85,7.99-22.38,22.76-22.38,38.75v39.88c0,.79-.02,1.58-.06,2.37-.75,14.29-8.31,27.36-20.31,35.15l-36.5,21.17c-13.83,8-22.35,22.77-22.35,38.75l.02,40.41,89.66-51.81,24.57-14.2c13.83-7.99,22.35-22.75,22.35-38.73V91.12Z"/>
    </g>
  </g>
</svg>
